<svg width="22" height="22" viewBox="0 0 22 22" fill="none" xmlns="http://www.w3.org/2000/svg">
<path d="M11 22C9.48333 22 8.05417 21.7125 6.7125 21.1375C5.37083 20.5625 4.20417 19.7792 3.2125 18.7875C2.22083 17.7958 1.4375 16.6292 0.8625 15.2875C0.2875 13.9458 0 12.5167 0 11C0 9.46667 0.2875 8.03333 0.8625 6.7C1.4375 5.36667 2.22083 4.20417 3.2125 3.2125C4.20417 2.22083 5.37083 1.4375 6.7125 0.8625C8.05417 0.2875 9.48333 0 11 0C12.5333 0 13.9667 0.2875 15.3 0.8625C16.6333 1.4375 17.7958 2.22083 18.7875 3.2125C19.7792 4.20417 20.5625 5.36667 21.1375 6.7C21.7125 8.03333 22 9.46667 22 11C22 12.5167 21.7125 13.9458 21.1375 15.2875C20.5625 16.6292 19.7792 17.7958 18.7875 18.7875C17.7958 19.7792 16.6333 20.5625 15.3 21.1375C13.9667 21.7125 12.5333 22 11 22ZM10.375 18.775C10.5417 18.9417 10.7333 19.025 10.95 19.025C11.1667 19.025 11.3583 18.9417 11.525 18.775L18.725 11.575C18.8917 11.4083 18.975 11.2083 18.975 10.975C18.975 10.7417 18.8917 10.5417 18.725 10.375L11.525 3.175C11.3583 3.00833 11.1667 2.925 10.95 2.925C10.7333 2.925 10.5417 3.00833 10.375 3.175L3.175 10.375C3.00833 10.5417 2.925 10.7417 2.925 10.975C2.925 11.2083 3.00833 11.4083 3.175 11.575L10.375 18.775ZM6.975 13.975V9.975C6.975 9.675 7.06667 9.43333 7.25 9.25C7.43333 9.06667 7.675 8.975 7.975 8.975H12.125L11.075 7.875L12.475 6.475L15.975 9.975L12.475 13.475L11.075 12.075L12.125 10.975H8.975V13.975H6.975ZM11 20C13.5167 20 15.6458 19.1292 17.3875 17.3875C19.1292 15.6458 20 13.5167 20 11C20 8.48333 19.1292 6.35417 17.3875 4.6125C15.6458 2.87083 13.5167 2 11 2C8.48333 2 6.35417 2.87083 4.6125 4.6125C2.87083 6.35417 2 8.48333 2 11C2 13.5167 2.87083 15.6458 4.6125 17.3875C6.35417 19.1292 8.48333 20 11 20Z" fill="#1C1B1F"/>
</svg>
